<?xml version="1.0" encoding="UTF-8"?>
<svg id="Capa_2" data-name="Capa 2" xmlns="http://www.w3.org/2000/svg" viewBox="0 0 738.74 307.21">
  <defs>
    <style>
      .cls-1 {
        fill: #fff;
        stroke-width: 0px;
      }
    </style>
  </defs>
  <g id="Capa_1-2" data-name="Capa 1">
    <g>
      <g>
        <path class="cls-1" d="M386.32,130.62c0,4.99-1.94,8.78-5.82,11.39-3.88,2.61-9.51,3.91-16.89,3.91h-5.89v12.19c0,1.76.11,3.17.35,4.26.23,1.08.72,1.93,1.45,2.53.74.6,1.75.99,3.05,1.18,1.29.18,3.02.28,5.19.28v2.77h-27.49v-2.77c1.52-.05,2.77-.18,3.74-.42.97-.23,1.71-.62,2.22-1.18s.85-1.34,1.04-2.35c.18-1.01.28-2.33.28-3.95v-31.99c0-1.62-.08-2.92-.24-3.91-.16-.99-.47-1.78-.94-2.35-.46-.58-1.12-.97-1.97-1.18-.85-.21-1.97-.36-3.36-.45v-2.77h23.96c7.01,0,12.32,1.25,15.92,3.74,3.6,2.49,5.4,6.19,5.4,11.08ZM357.72,141.76h4.5c4.48,0,7.75-.9,9.83-2.7,2.08-1.8,3.12-4.64,3.12-8.52,0-3.46-.88-6.14-2.63-8.03-1.76-1.89-4.5-2.84-8.24-2.84h-5.33c-.83,0-1.25.39-1.25,1.18v20.91Z"/>
        <path class="cls-1" d="M492.91,129.16c0,3.83-1.11,7.04-3.32,9.62-2.22,2.59-5.75,4.32-10.59,5.19l16.06,18.42c1.11,1.29,2.42,2.27,3.95,2.94,1.52.67,3.07,1,4.64,1v2.77h-16.41l-17.17-21.05c-1.15-1.39-2.16-2.32-3.01-2.8-.85-.48-1.65-.73-2.39-.73v13.57c0,1.71.11,3.1.35,4.19.23,1.08.69,1.93,1.39,2.53.69.6,1.7,1,3.01,1.21s3.08.31,5.3.31v2.77h-27.49v-2.77c1.52,0,2.76-.1,3.7-.31.94-.21,1.68-.6,2.22-1.18.53-.58.89-1.39,1.07-2.42.18-1.04.28-2.36.28-3.98v-31.99c0-1.62-.07-2.92-.21-3.91-.14-.99-.44-1.78-.9-2.35-.46-.58-1.12-.97-1.97-1.18-.85-.21-2-.36-3.43-.45v-2.77h23.96c6.69,0,11.86,1.18,15.51,3.53,3.65,2.35,5.47,5.63,5.47,9.83ZM464.66,140.38h4.5c4.34,0,7.58-.84,9.73-2.53,2.15-1.68,3.22-4.47,3.22-8.34,0-2.95-.9-5.33-2.7-7.13-1.8-1.8-4.29-2.7-7.48-2.7h-6.02c-.83,0-1.25.39-1.25,1.18v19.52Z"/>
        <path class="cls-1" d="M533.74,115.11c4.2,0,8.12.72,11.77,2.15,3.65,1.43,6.82,3.4,9.52,5.92,2.7,2.52,4.82,5.47,6.37,8.86,1.55,3.39,2.32,7.03,2.32,10.9,0,4.75-1.17,9.13-3.5,13.12-2.33,3.99-5.6,7.35-9.8,10.07-.79.51-1.53.96-2.25,1.35-.72.39-1.53.8-2.46,1.21-.92.42-2,.85-3.22,1.31s-2.69.99-4.4,1.59c-1.02.37-1.88.69-2.6.97-.72.28-1.35.54-1.9.8s-1.05.51-1.49.76-.86.52-1.28.8v.28c.32-.05.74-.08,1.25-.1s.99-.03,1.45-.03c1.98,0,3.87.22,5.64.66,1.78.44,3.53.91,5.26,1.42s3.47.98,5.23,1.42c1.75.44,3.6.66,5.54.66,2.22,0,3.95-.39,5.19-1.18,1.25-.79,2.22-2.1,2.91-3.95h2.56c.09.6.16,1.15.21,1.66.05.51.07.95.07,1.32,0,1.43-.32,2.76-.97,3.98-.65,1.22-1.55,2.28-2.7,3.19-1.15.9-2.52,1.6-4.08,2.11-1.57.51-3.25.76-5.05.76-2.59,0-4.99-.44-7.2-1.32-2.22-.88-4.34-1.85-6.37-2.91-2.03-1.06-3.97-2.03-5.82-2.91-1.85-.88-3.67-1.32-5.47-1.32-1.25,0-2.26.21-3.05.62s-1.49.87-2.11,1.35-1.25.93-1.87,1.35c-.62.42-1.37.62-2.25.62-.79,0-1.41-.18-1.87-.55-.46-.37-.69-.83-.69-1.38,0-.79.36-1.51,1.07-2.18.71-.67,2.04-1.54,3.98-2.6l8.72-4.92c-3.69-.32-7.13-1.27-10.32-2.84-3.19-1.57-5.94-3.6-8.27-6.09-2.33-2.49-4.17-5.37-5.5-8.62-1.34-3.25-2.01-6.73-2.01-10.42,0-3.92.75-7.59,2.25-11.01,1.5-3.42,3.57-6.37,6.2-8.86,2.63-2.49,5.75-4.45,9.35-5.89,3.6-1.43,7.48-2.15,11.63-2.15ZM533.74,167.04c2.72,0,5.19-.56,7.41-1.7,2.22-1.13,4.1-2.73,5.64-4.81,1.55-2.08,2.75-4.59,3.6-7.55.85-2.95,1.28-6.23,1.28-9.83s-.43-6.85-1.28-9.76c-.85-2.91-2.05-5.38-3.6-7.41-1.55-2.03-3.43-3.6-5.64-4.71-2.22-1.11-4.68-1.66-7.41-1.66s-5.16.54-7.3,1.63c-2.15,1.09-3.96,2.64-5.44,4.67-1.48,2.03-2.62,4.5-3.43,7.41-.81,2.91-1.21,6.19-1.21,9.83s.4,7.02,1.21,9.97c.81,2.95,1.96,5.46,3.46,7.51,1.5,2.05,3.32,3.64,5.47,4.74,2.15,1.11,4.56,1.66,7.24,1.66Z"/>
        <path class="cls-1" d="M618.64,147.65c0,3.92-.43,7.28-1.28,10.07-.85,2.79-2.18,5.09-3.98,6.89s-4.12,3.11-6.96,3.95c-2.84.83-6.24,1.25-10.21,1.25-7.43,0-12.87-1.56-16.3-4.67-3.44-3.12-5.16-8.09-5.16-14.92v-18.97c0-1.8-.02-3.31-.07-4.53-.05-1.22-.12-2.25-.21-3.08-.09-.83-.22-1.51-.38-2.04-.16-.53-.36-.98-.59-1.35-.42-.65-1.02-1.08-1.8-1.32-.79-.23-1.99-.35-3.6-.35v-2.77h24.86v2.77c-1.94,0-3.37.1-4.29.31-.92.21-1.64.61-2.15,1.21-.32.37-.59.82-.8,1.35-.21.53-.37,1.22-.48,2.08-.12.85-.2,1.9-.24,3.15-.05,1.25-.07,2.77-.07,4.57v18.14c0,5.26,1.12,9.15,3.36,11.67,2.24,2.52,5.69,3.77,10.35,3.77,9.51,0,14.26-5.29,14.26-15.86v-15.99c0-1.94-.03-3.6-.1-4.98-.07-1.39-.19-2.56-.35-3.53-.16-.97-.37-1.78-.62-2.42-.25-.65-.57-1.18-.94-1.59-.65-.65-1.48-1.12-2.49-1.42-1.02-.3-2.42-.45-4.22-.45v-2.77h22.43v2.77c-1.71,0-3.02.13-3.95.38-.92.25-1.64.7-2.15,1.35-.37.42-.67.96-.9,1.63-.23.67-.42,1.5-.55,2.49-.14.99-.24,2.18-.31,3.57-.07,1.38-.1,3.05-.1,4.98v14.68Z"/>
        <path class="cls-1" d="M648.9,139.62c2.95,0,5.33-.09,7.13-.28,1.8-.18,3.19-.56,4.19-1.14.99-.58,1.7-1.42,2.11-2.53.42-1.11.74-2.61.97-4.5h2.56v20.29h-2.56c-.28-1.85-.65-3.32-1.11-4.43-.46-1.11-1.2-1.95-2.22-2.53-1.02-.58-2.39-.95-4.12-1.11-1.73-.16-4.05-.24-6.96-.24v14.26c0,1.48.2,2.72.59,3.74.39,1.02,1.05,1.83,1.97,2.46.92.62,2.15,1.06,3.67,1.31,1.52.25,3.39.38,5.61.38,2.63,0,4.86-.18,6.68-.55,1.82-.37,3.33-1.01,4.53-1.94,1.2-.92,2.17-2.16,2.91-3.7.74-1.55,1.36-3.5,1.87-5.85h2.77l-1.11,15.86h-46.94v-2.77c1.52-.05,2.77-.18,3.74-.42.97-.23,1.71-.62,2.22-1.18s.85-1.34,1.04-2.35c.18-1.01.28-2.33.28-3.95v-31.99c0-1.62-.08-2.92-.24-3.91-.16-.99-.47-1.78-.93-2.35-.46-.58-1.12-.97-1.97-1.18-.85-.21-1.97-.36-3.36-.45v-2.77h43.76l.48,13.57h-2.98c-.28-1.94-.72-3.54-1.32-4.81-.6-1.27-1.43-2.28-2.49-3.05-1.06-.76-2.43-1.29-4.12-1.59-1.69-.3-3.75-.45-6.2-.45h-7.82c-1.2,0-1.94.15-2.22.45-.28.3-.42,1-.42,2.11v17.59Z"/>
        <path class="cls-1" d="M437.2,165.65c-.99-.28-1.87-.77-2.63-1.49-.76-.71-1.48-1.74-2.15-3.08-.67-1.34-1.49-3.19-2.46-5.54l-16.55-40.43h-5.12l-18.21,45.63c-.42.97-.85,1.79-1.32,2.46-.46.67-1,1.21-1.63,1.63-.62.42-1.34.74-2.15.97-.81.23-1.77.42-2.87.55v2.77h18.97v-2.77c-2.08,0-3.63-.18-4.67-.55-1.04-.37-1.56-1.25-1.56-2.63,0-1.89,13.08-35.31,13.08-35.31h.28l11.08,29.29c.55,1.48.99,2.72,1.32,3.74.32,1.02.48,1.85.48,2.49,0,1.11-.48,1.85-1.45,2.22-.97.37-2.56.6-4.78.69v2.84h26.17v-2.84c-1.57-.14-2.85-.35-3.84-.62Z"/>
      </g>
      <g>
        <path class="cls-1" d="M451.02,214.12c0,3.83-1.11,7.04-3.32,9.62-2.22,2.59-5.75,4.32-10.59,5.19l16.06,18.42c1.11,1.29,2.42,2.27,3.95,2.94,1.52.67,3.07,1,4.64,1v2.77h-16.41l-17.17-21.05c-1.16-1.39-2.16-2.32-3.01-2.8-.85-.48-1.65-.73-2.39-.73v13.57c0,1.71.11,3.1.35,4.19s.69,1.93,1.39,2.53c.69.6,1.7,1,3.01,1.21s3.08.31,5.3.31v2.77h-27.49v-2.77c1.52,0,2.76-.1,3.7-.31.94-.21,1.68-.6,2.22-1.18.53-.58.89-1.39,1.07-2.42.18-1.04.28-2.36.28-3.98v-31.99c0-1.62-.07-2.92-.21-3.91-.14-.99-.44-1.78-.9-2.35-.46-.58-1.12-.97-1.97-1.18-.85-.21-2-.36-3.43-.45v-2.77h23.96c6.69,0,11.86,1.18,15.51,3.53,3.65,2.35,5.47,5.63,5.47,9.83ZM422.77,225.34h4.5c4.34,0,7.58-.84,9.73-2.53,2.15-1.68,3.22-4.47,3.22-8.34,0-2.95-.9-5.33-2.7-7.13-1.8-1.8-4.29-2.7-7.48-2.7h-6.02c-.83,0-1.25.39-1.25,1.18v19.52Z"/>
        <path class="cls-1" d="M467.47,254.07v-2.77c1.52-.05,2.76-.17,3.7-.38.95-.21,1.68-.6,2.22-1.18.53-.58.89-1.36,1.07-2.35.18-.99.28-2.32.28-3.98v-31.99c0-1.62-.07-2.92-.21-3.91-.14-.99-.44-1.78-.9-2.35-.46-.58-1.1-.97-1.9-1.18-.81-.21-1.86-.36-3.15-.45v-2.77h26.31c4.43,0,8.52.69,12.25,2.08,3.74,1.39,6.97,3.3,9.69,5.75,2.72,2.45,4.85,5.35,6.37,8.72,1.52,3.37,2.28,7.04,2.28,11.01s-.72,7.26-2.15,10.42c-1.43,3.16-3.43,5.87-5.99,8.14-2.56,2.26-5.63,4.03-9.21,5.3-3.58,1.27-7.51,1.9-11.8,1.9h-28.87ZM486.1,204.99c-.79,0-1.18.39-1.18,1.18v35.8c0,2.68.83,4.66,2.49,5.95,1.66,1.29,4.22,1.94,7.69,1.94,6.05,0,10.7-1.82,13.95-5.47,3.25-3.65,4.88-8.95,4.88-15.92,0-3.69-.44-6.99-1.32-9.9-.88-2.91-2.15-5.37-3.81-7.37-1.66-2.01-3.68-3.54-6.06-4.6-2.38-1.06-5.04-1.59-8-1.59h-8.65Z"/>
        <path class="cls-1" d="M637.17,254.07h-47.7v-2.77c1.52-.05,2.77-.18,3.74-.42.97-.23,1.71-.62,2.22-1.18s.85-1.34,1.04-2.35c.18-1.01.28-2.33.28-3.95v-31.99c0-1.62-.08-2.92-.24-3.91-.16-.99-.47-1.78-.93-2.35-.46-.58-1.12-.97-1.97-1.18-.85-.21-1.97-.36-3.36-.45v-2.77h23.89v2.77c-1.57.05-2.83.18-3.77.42-.95.23-1.67.65-2.18,1.25-.51.6-.84,1.43-1,2.49-.16,1.06-.24,2.47-.24,4.22v29.01c0,1.94.2,3.52.59,4.74.39,1.22,1.07,2.17,2.04,2.84.97.67,2.26,1.13,3.88,1.38,1.62.25,3.62.38,6.02.38,2.68,0,4.92-.16,6.72-.48,1.8-.32,3.31-.93,4.54-1.83,1.22-.9,2.2-2.11,2.94-3.64.74-1.52,1.36-3.51,1.87-5.95h2.77l-1.11,15.72Z"/>
        <path class="cls-1" d="M661.06,224.58c2.95,0,5.33-.09,7.13-.28,1.8-.18,3.2-.56,4.19-1.14.99-.58,1.7-1.42,2.11-2.53.42-1.11.74-2.61.97-4.5h2.56v20.29h-2.56c-.28-1.85-.65-3.32-1.11-4.43-.46-1.11-1.2-1.95-2.22-2.53-1.02-.58-2.39-.95-4.12-1.11-1.73-.16-4.05-.24-6.96-.24v14.26c0,1.48.2,2.72.59,3.74.39,1.02,1.05,1.83,1.97,2.46.92.62,2.15,1.06,3.67,1.31,1.52.25,3.39.38,5.61.38,2.63,0,4.86-.18,6.68-.55,1.82-.37,3.33-1.01,4.53-1.94,1.2-.92,2.17-2.16,2.91-3.7.74-1.55,1.36-3.5,1.87-5.85h2.77l-1.11,15.86h-46.94v-2.77c1.52-.05,2.77-.18,3.74-.42.97-.23,1.71-.62,2.22-1.18s.85-1.34,1.04-2.35c.18-1.01.28-2.33.28-3.95v-31.99c0-1.62-.08-2.92-.24-3.91-.16-.99-.47-1.78-.94-2.35-.46-.58-1.12-.97-1.97-1.18-.85-.21-1.97-.36-3.36-.45v-2.77h43.76l.48,13.57h-2.98c-.28-1.94-.72-3.54-1.32-4.81-.6-1.27-1.43-2.28-2.49-3.05-1.06-.76-2.43-1.29-4.12-1.59-1.69-.3-3.75-.45-6.2-.45h-7.82c-1.2,0-1.94.15-2.22.45-.28.3-.42,1-.42,2.11v17.59Z"/>
        <path class="cls-1" d="M699.69,236.42h2.7c.65,4.39,2.4,7.84,5.26,10.35,2.86,2.52,6.39,3.77,10.59,3.77,1.71,0,3.28-.21,4.71-.62,1.43-.42,2.65-1,3.67-1.77,1.02-.76,1.8-1.66,2.35-2.7.55-1.04.83-2.2.83-3.5,0-1.11-.17-2.07-.52-2.87-.35-.81-1-1.59-1.97-2.35-.97-.76-2.3-1.53-3.98-2.32-1.69-.78-3.87-1.68-6.54-2.7-5.4-2.08-9.39-4.49-11.98-7.24-2.59-2.74-3.88-5.99-3.88-9.73,0-2.17.42-4.15,1.25-5.95.83-1.8,2-3.35,3.5-4.64,1.5-1.29,3.3-2.3,5.4-3.01,2.1-.72,4.42-1.07,6.96-1.07,2.35,0,4.57.37,6.65,1.11,2.08.74,4.13,1.85,6.16,3.32l1.25-3.46h1.66l.76,14.96h-2.7c-1.11-3.78-2.84-6.68-5.19-8.69s-5.08-3.01-8.17-3.01c-2.86,0-5.18.7-6.96,2.11-1.78,1.41-2.67,3.22-2.67,5.44,0,.97.16,1.83.48,2.6.32.76.92,1.49,1.8,2.18.88.69,2.08,1.4,3.6,2.11,1.52.72,3.48,1.51,5.89,2.39,3.23,1.25,5.99,2.5,8.27,3.77,2.28,1.27,4.15,2.63,5.61,4.08,1.45,1.45,2.53,2.99,3.22,4.6.69,1.62,1.04,3.39,1.04,5.33,0,2.35-.51,4.5-1.52,6.44-1.02,1.94-2.44,3.6-4.26,4.99-1.82,1.38-3.99,2.47-6.51,3.25-2.52.78-5.3,1.18-8.34,1.18-2.77,0-5.26-.38-7.48-1.14-2.22-.76-4.5-2-6.85-3.7l-1.39,4.15h-1.66l-1.04-17.66Z"/>
        <path class="cls-1" d="M395.35,250.61c-.99-.28-1.87-.77-2.63-1.49-.76-.71-1.48-1.74-2.15-3.08-.67-1.34-1.49-3.19-2.46-5.54l-16.55-40.43h-5.12l-18.21,45.63c-.42.97-.85,1.79-1.32,2.46-.46.67-1,1.21-1.63,1.63-.62.42-1.34.74-2.15.97-.81.23-1.77.42-2.87.55v2.77h18.97v-2.77c-2.08,0-3.63-.18-4.67-.55-1.04-.37-1.56-1.25-1.56-2.63,0-1.89,13.08-35.31,13.08-35.31h.28l11.08,29.29c.55,1.48.99,2.72,1.32,3.74.32,1.02.48,1.85.48,2.49,0,1.11-.48,1.85-1.45,2.22-.97.37-2.56.6-4.78.69v2.84h26.17v-2.84c-1.57-.14-2.85-.35-3.84-.62Z"/>
        <path class="cls-1" d="M580.45,250.61c-.99-.28-1.87-.77-2.63-1.49-.76-.71-1.48-1.74-2.15-3.08-.67-1.34-1.49-3.19-2.46-5.54l-16.55-40.43h-5.12l-18.21,45.63c-.42.97-.85,1.79-1.32,2.46-.46.67-1,1.21-1.63,1.63-.62.42-1.34.74-2.15.97-.81.23-1.77.42-2.87.55v2.77h18.97v-2.77c-2.08,0-3.63-.18-4.67-.55-1.04-.37-1.56-1.25-1.56-2.63,0-1.89,13.08-35.31,13.08-35.31h.28l11.08,29.29c.55,1.48.99,2.72,1.32,3.74.32,1.02.48,1.85.48,2.49,0,1.11-.48,1.85-1.45,2.22-.97.37-2.56.6-4.78.69v2.84h26.17v-2.84c-1.57-.14-2.85-.35-3.84-.62Z"/>
      </g>
      <g>
        <path class="cls-1" d="M356.4,79.41c1.8,0,3.35-.3,4.65-.91s2.66-1.57,4.07-2.9l3.37,3.45c-3.28,3.63-7.26,5.45-11.94,5.45s-8.56-1.51-11.65-4.52c-3.09-3.01-4.63-6.82-4.63-11.42s1.57-8.45,4.72-11.52c3.14-3.07,7.11-4.61,11.92-4.61s8.8,1.77,12.02,5.32l-3.32,3.63c-1.48-1.41-2.87-2.41-4.19-2.97-1.31-.56-2.86-.84-4.63-.84-3.13,0-5.76,1.01-7.88,3.03-2.13,2.02-3.19,4.61-3.19,7.75s1.05,5.77,3.17,7.88c2.11,2.11,4.61,3.17,7.51,3.17Z"/>
        <path class="cls-1" d="M393.18,77.11l-3.1,7.04h-5.58l13.64-30.96h5.58l13.64,30.96h-5.58l-3.1-7.04h-15.5ZM406.55,72.28l-5.62-12.76-5.63,12.76h11.25Z"/>
        <path class="cls-1" d="M441.45,84.15h-5.22v-30.96h8.15l9.34,19.44,9.34-19.44h8.11v30.96h-5.23v-24.18l-10.81,21.48h-2.92l-10.76-21.48v24.18Z"/>
        <path class="cls-1" d="M516.78,55.9c2.16,1.8,3.23,4.58,3.23,8.33s-1.1,6.49-3.3,8.24c-2.2,1.74-5.57,2.61-10.12,2.61h-5.49v9.08h-5.22v-30.96h10.63c4.7,0,8.12.9,10.27,2.7ZM513.08,68.67c1.05-1.11,1.57-2.73,1.57-4.87s-.66-3.65-1.99-4.54c-1.33-.89-3.41-1.33-6.24-1.33h-5.32v12.4h6.07c2.89,0,4.87-.55,5.91-1.66Z"/>
        <path class="cls-1" d="M540.75,53.19h5.22v30.96h-5.22v-30.96Z"/>
        <path class="cls-1" d="M593.92,53.19h5.22v30.96h-5.67l-17.54-22.59v22.59h-5.22v-30.96h5.22l17.98,23.12v-23.12Z"/>
        <path class="cls-1" d="M644.62,69.09h5.23v10.58c-2.92,3.22-7.1,4.83-12.53,4.83-4.58,0-8.41-1.51-11.49-4.52-3.09-3.01-4.63-6.82-4.63-11.42s1.57-8.45,4.72-11.52c3.14-3.07,6.95-4.61,11.41-4.61s8.16,1.3,11.12,3.9l-2.79,3.99c-1.21-1.03-2.43-1.75-3.65-2.15-1.22-.4-2.65-.6-4.27-.6-3.13,0-5.76,1.01-7.88,3.03-2.13,2.02-3.19,4.68-3.19,7.97s1.03,5.93,3.1,7.93,4.57,2.99,7.51,2.99,5.4-.64,7.37-1.91v-8.5Z"/>
      </g>
    </g>
    <g>
      <path class="cls-1" d="M121.4,249.56c31.21,9.58,68.24,9.89,94-.02,1.72-.66,2.48-.19,1.19.7-39.98,27.67-99.98,9.39-141.16-7.66-15.83-6.72-38.34-15.06-58.9-20.16,7.31,14.43,16.94,27.78,28.72,39.55,2.12,2.12,4.29,4.15,6.5,6.13,2.76,2.4,5.51,4.68,8.2,6.84,26.94,20.93,59.86,32.27,94.52,32.27s64.97-10.47,91.3-29.84c4.92-3.84,10.11-8.14,15.28-12.82.89-.85,1.77-1.71,2.64-2.58,12.82-12.82,23.11-27.5,30.61-43.42-82.78-2.48-149.71,21.06-172.89,31.01ZM197.67,287.84c-9.63,11.38-29.02,8.31-41.91,4.13-16.38-5.5-42.84-20.77-59.25-9.26-.78.55-.98-.25-.25-1.16,9.54-11.76,29.17-8.67,42.18-4.46,16.17,5.42,42.17,20.36,58.63,9.68,1-.65,1.44.08.6,1.07Z"/>
      <path class="cls-1" d="M263.68,43.53c-2.43-2.43-5.45,2.31-8.9,6.08-.47,5.61-.81,10.66-.81,10.66-5.87,1.05-23.37,3.75-47.74,3.75s-41.41-2.63-47.5-3.7c0,0-2.24-21.95-2.34-22.49-.1-.54-.36-.89-.74-1.16-2.63-1.88-13.3-9.5-13.65-9.75-.39-.28-.64-.66-.75-1.12-1-4.02-5.93-23.78-6.02-24.09-.1-.35-.43-.67-.95-.82-.65-.19-1.67-.5-2.94-.88-32.48,4.85-62.45,19.88-86.1,43.53C16.07,72.7,0,111.49,0,152.75c0,16.74,2.64,33.07,7.74,48.51h0s0,0,0,0h55.52v-30.91c-14.78,6.11-48.11,19.08-48.11,11.82,0-9.33,18.67-11.79,33.41-36.36,1.78-2.96,3.31-5.99,4.65-9.04-12.94,4.89-28.55,9.84-28.55,5.32,0-7.72,15.45-9.76,27.64-30.08,2.88-4.81,4.99-9.84,6.63-14.73-10.86,4.22-25.65,9.24-25.65,5.27,0-6.26,12.52-7.91,22.41-24.39,9.89-16.48,8.57-36.25,14.5-36.25s4.61,19.77,14.5,36.25c9.89,16.48,22.41,18.12,22.41,24.39,0,3.97-14.79-1.05-25.65-5.27,1.64,4.89,3.74,9.92,6.63,14.73,12.2,20.33,27.64,22.36,27.64,30.08,0,4.52-15.61-.43-28.55-5.32,1.34,3.04,2.87,6.08,4.65,9.04,14.74,24.57,33.41,27.03,33.41,36.36,0,7.27-33.33-5.71-48.11-11.82v30.91h43.43c30.43-52.71,30.22-52.33,39.36-68.18,1.06-1.83,1.64-1.06,2.5.12.86,1.18,39.29,68.06,39.29,68.06h4.74l-39.74-68.83s-1.04-1.45.47-1.45h13.41s.02-16.87,0-17.36c-.04-.67.26-.74-.74-1.81-1.01-1.06-6.62-10.77-6.62-10.77,8.4-.91,19.67-1.72,33.03-1.72,17.81,0,31.92,1.45,40.45,2.63,0,0-3.51,11.17-3.55,11.8-.05.64-.35,1.1-.67,1.35-3,2.34-14.32,11.93-14.68,12.4-.4.52-.77.89-.95,1.55-.11.39-.41,1.94-.41,1.94h22.4c2.74,0,3.31,1.59,3.31,1.59l39.66,68.69h9.39s0,0,0,0h0c5.09-15.45,7.74-31.78,7.74-48.51,0-41.26-16.07-80.04-45.24-109.22ZM178.81,91.12c-5.31.45-9.83.97-13.48,1.46l-5.4-26.39c4.02.66,10.44,1.57,18.88,2.28v22.65ZM203.43,90.01c-6.99.06-13.36.32-19.03.7v-21.81c5.66.37,12.03.64,19.03.7v20.42ZM228.05,90.7c-5.67-.37-12.04-.64-19.03-.7v-20.42c7-.06,13.37-.32,19.03-.7v21.81ZM248.28,92.74c-3.83-.54-8.75-1.13-14.64-1.62v-22.65c8.74-.74,15.32-1.69,19.3-2.35l-4.66,26.62Z"/>
      <path class="cls-1" d="M159.85,172.28c-1.23,2.14-16.73,28.98-16.73,28.98h35.96s-16.12-28.06-16.74-29-1.26-2.12-2.49.02Z"/>
    </g>
  </g>
</svg>