<?xml version="1.0" encoding="UTF-8"?>
<svg id="Capa_2" data-name="Capa 2" xmlns="http://www.w3.org/2000/svg" viewBox="0 0 371.49 369.43">
  <defs>
    <style>
      .cls-1 {
        fill: #415243;
      }

      .cls-1, .cls-2, .cls-3 {
        stroke-width: 0px;
      }

      .cls-2 {
        fill: #00879a;
      }

      .cls-3 {
        fill: #e4a851;
      }
    </style>
  </defs>
  <g id="Capa_1-2" data-name="Capa 1">
    <g>
      <path class="cls-3" d="M306.38,59.66c-.57,6.74-.97,12.82-.97,12.82-7.06,1.26-28.1,4.51-57.41,4.51s-49.8-3.16-57.12-4.46c0,0-2.69-26.4-2.81-27.05-.12-.65-.44-1.07-.88-1.39-3.17-2.26-16-11.42-16.41-11.72-.47-.34-.77-.8-.9-1.35-1.21-4.84-7.13-28.59-7.24-28.97-.12-.42-.52-.8-1.14-.99-.78-.23-2.01-.6-3.53-1.06-39.06,5.83-75.1,23.91-103.54,52.35C19.32,87.43,0,134.07,0,183.69c0,20.13,3.18,39.77,9.3,58.34h352.88c6.12-18.58,9.3-38.21,9.3-58.34,0-49.61-19.32-96.26-54.4-131.34-2.92-2.92-6.55,2.77-10.7,7.31ZM251.36,83.69c8.42-.07,16.08-.39,22.89-.84v26.23c-6.82-.45-14.48-.77-22.89-.84v-24.55ZM221.75,82.85c6.81.45,14.47.77,22.89.84v24.55c-8.41.07-16.07.39-22.89.84v-26.23ZM192.32,79.6c4.83.79,12.56,1.88,22.7,2.74v27.24c-6.38.54-11.82,1.17-16.21,1.76l-6.49-31.74ZM292.36,136.79c-.06.77-.42,1.32-.8,1.62-3.61,2.81-17.22,14.35-17.65,14.91-.48.62-.92,1.07-1.14,1.86-.13.47-.49,2.33-.49,2.33h-55.14s.03-20.29,0-20.88c-.05-.8.31-.9-.89-2.18-1.21-1.28-7.96-12.95-7.96-12.95,10.1-1.09,23.66-2.07,39.72-2.07,21.42,0,38.39,1.74,48.64,3.16,0,0-4.22,13.43-4.27,14.19ZM298.57,111.53c-4.61-.65-10.53-1.36-17.6-1.95v-27.24c10.51-.89,18.42-2.03,23.21-2.83l-5.6,32.01Z"/>
      <path class="cls-2" d="M145.99,300.11c37.53,11.52,82.06,11.89,113.04-.02,2.07-.79,2.98-.23,1.43.85-48.08,33.28-120.24,11.3-169.76-9.22-19.04-8.08-46.1-18.1-70.83-24.25,8.79,17.36,20.38,33.4,34.53,47.56,2.54,2.54,5.16,4.99,7.82,7.37,3.32,2.88,6.63,5.63,9.86,8.22,32.4,25.17,71.98,38.81,113.67,38.81s78.13-12.59,109.79-35.88c5.91-4.62,12.16-9.79,18.37-15.42,1.07-1.02,2.13-2.05,3.18-3.1,15.42-15.42,27.79-33.07,36.81-52.22-99.55-2.99-180.04,25.32-207.91,37.3ZM237.71,346.15c-11.58,13.68-34.9,9.99-50.4,4.97-19.69-6.61-51.51-24.98-71.26-11.14-.93.66-1.18-.31-.3-1.39,11.47-14.14,35.08-10.42,50.73-5.36,19.45,6.52,50.71,24.49,70.5,11.64,1.2-.78,1.74.1.73,1.29Z"/>
      <path class="cls-1" d="M350.9,242.03l-47.69-82.61s-.69-1.91-3.98-1.91h-98.22c-1.82,0-.57,1.75-.57,1.75l47.79,82.77h-5.7s-46.21-80.42-47.25-81.84c-1.04-1.42-1.74-2.35-3.01-.15-11,19.05-10.74,18.6-47.34,81.99h-52.22v-37.17c17.77,7.35,57.86,22.95,57.86,14.21,0-11.23-22.45-14.18-40.18-43.72-2.14-3.56-3.98-7.21-5.59-10.87,15.56,5.87,34.34,11.84,34.34,6.4,0-9.29-18.58-11.73-33.24-36.17-3.47-5.78-6-11.83-7.97-17.71,13.05,5.07,30.85,11.11,30.85,6.34,0-7.53-15.06-9.51-26.95-29.32-11.89-19.81-10.3-43.59-17.44-43.59s-5.55,23.78-17.44,43.59c-11.89,19.81-26.95,21.8-26.95,29.32,0,4.77,17.79-1.27,30.85-6.34-1.97,5.88-4.5,11.93-7.97,17.71-14.67,24.44-33.24,26.89-33.24,36.17,0,5.44,18.77-.52,34.34-6.4-1.61,3.66-3.45,7.31-5.59,10.87-17.73,29.54-40.18,32.5-40.18,43.72,0,8.74,40.08-6.86,57.86-14.21v37.17H9.3c1.67,5.05,3.56,10.02,5.65,14.9,27.92,4.85,59.63,15.4,80.16,24.54,11.9,4.8,24.59,9.83,37.72,14.34,7.01-3.39,28.75-13.3,61.92-22.79,35.84-10.26,96.6-21.78,163.17-19.43,1.55-3.81,2.97-7.66,4.26-11.57h-11.29Z"/>
      <path class="cls-3" d="M192.22,207.18c-1.49,2.57-20.12,34.85-20.12,34.85h43.25s-19.39-33.75-20.13-34.87-1.51-2.55-3,.02Z"/>
    </g>
  </g>
</svg>