<?xml version="1.0" encoding="UTF-8"?>
<svg id="Capa_2" data-name="Capa 2" xmlns="http://www.w3.org/2000/svg" viewBox="0 0 773.93 547.83">
  <defs>
    <style>
      .cls-1 {
        fill: #415243;
      }

      .cls-1, .cls-2, .cls-3 {
        stroke-width: 0px;
      }

      .cls-2 {
        fill: #00879a;
      }

      .cls-3 {
        fill: #e4a851;
      }
    </style>
  </defs>
  <g id="Capa_1-2" data-name="Capa 1">
    <g>
      <g>
        <path class="cls-1" d="M46.04,431.38c0,4.99-1.94,8.78-5.82,11.39-3.88,2.61-9.51,3.91-16.89,3.91h-5.89v12.19c0,1.76.11,3.17.35,4.26s.72,1.93,1.45,2.53c.74.6,1.75.99,3.05,1.18,1.29.18,3.02.28,5.19.28v2.77H0v-2.77c1.52-.05,2.77-.18,3.74-.42.97-.23,1.71-.62,2.22-1.18s.85-1.34,1.04-2.35c.18-1.01.28-2.33.28-3.95v-31.99c0-1.62-.08-2.92-.24-3.91-.16-.99-.47-1.78-.94-2.35-.46-.58-1.12-.97-1.97-1.18-.85-.21-1.97-.36-3.36-.45v-2.77h23.96c7.01,0,12.32,1.25,15.92,3.74,3.6,2.49,5.4,6.19,5.4,11.08ZM17.45,442.52h4.5c4.48,0,7.75-.9,9.83-2.7s3.12-4.64,3.12-8.52c0-3.46-.88-6.14-2.63-8.03-1.76-1.89-4.5-2.84-8.24-2.84h-5.33c-.83,0-1.25.39-1.25,1.18v20.91Z"/>
        <path class="cls-1" d="M152.63,429.92c0,3.83-1.11,7.04-3.32,9.62-2.22,2.59-5.75,4.32-10.59,5.19l16.06,18.42c1.11,1.29,2.42,2.27,3.95,2.94,1.52.67,3.07,1,4.64,1v2.77h-16.41l-17.17-21.05c-1.15-1.39-2.16-2.32-3.01-2.8-.85-.48-1.65-.73-2.39-.73v13.57c0,1.71.11,3.1.35,4.19.23,1.08.69,1.93,1.39,2.53.69.6,1.7,1,3.01,1.21s3.08.31,5.3.31v2.77h-27.49v-2.77c1.52,0,2.76-.1,3.7-.31.94-.21,1.68-.6,2.22-1.18.53-.58.89-1.39,1.07-2.42.18-1.04.28-2.36.28-3.98v-31.99c0-1.62-.07-2.92-.21-3.91-.14-.99-.44-1.78-.9-2.35-.46-.58-1.12-.97-1.97-1.18-.85-.21-2-.36-3.43-.45v-2.77h23.96c6.69,0,11.86,1.18,15.51,3.53,3.65,2.35,5.47,5.63,5.47,9.83ZM124.38,441.14h4.5c4.34,0,7.58-.84,9.73-2.53,2.15-1.68,3.22-4.47,3.22-8.34,0-2.95-.9-5.33-2.7-7.13-1.8-1.8-4.29-2.7-7.48-2.7h-6.02c-.83,0-1.25.39-1.25,1.18v19.52Z"/>
        <path class="cls-1" d="M193.46,415.87c4.2,0,8.12.72,11.77,2.15,3.65,1.43,6.82,3.4,9.52,5.92,2.7,2.52,4.82,5.47,6.37,8.86,1.55,3.39,2.32,7.03,2.32,10.9,0,4.75-1.17,9.13-3.5,13.12-2.33,3.99-5.6,7.35-9.8,10.07-.79.51-1.53.96-2.25,1.35-.72.39-1.53.8-2.46,1.21-.92.42-2,.85-3.22,1.31s-2.69.99-4.4,1.59c-1.02.37-1.88.69-2.6.97-.72.28-1.35.54-1.9.8s-1.05.51-1.49.76-.86.52-1.28.8v.28c.32-.05.74-.08,1.25-.1s.99-.03,1.45-.03c1.98,0,3.87.22,5.64.66,1.78.44,3.53.91,5.26,1.42,1.73.51,3.47.98,5.23,1.42,1.75.44,3.6.66,5.54.66,2.22,0,3.95-.39,5.19-1.18,1.25-.79,2.22-2.1,2.91-3.95h2.56c.09.6.16,1.15.21,1.66.05.51.07.95.07,1.32,0,1.43-.32,2.76-.97,3.98-.65,1.22-1.55,2.28-2.7,3.19-1.15.9-2.52,1.6-4.08,2.11s-3.25.76-5.05.76c-2.59,0-4.99-.44-7.2-1.32-2.22-.88-4.34-1.85-6.37-2.91-2.03-1.06-3.97-2.03-5.82-2.91-1.85-.88-3.67-1.32-5.47-1.32-1.25,0-2.26.21-3.05.62s-1.49.87-2.11,1.35-1.25.93-1.87,1.35c-.62.42-1.37.62-2.25.62-.79,0-1.41-.18-1.87-.55-.46-.37-.69-.83-.69-1.38,0-.79.36-1.51,1.07-2.18.71-.67,2.04-1.54,3.98-2.6l8.72-4.92c-3.69-.32-7.13-1.27-10.32-2.84-3.19-1.57-5.94-3.6-8.27-6.09-2.33-2.49-4.17-5.37-5.5-8.62-1.34-3.25-2.01-6.73-2.01-10.42,0-3.92.75-7.59,2.25-11.01,1.5-3.42,3.57-6.37,6.2-8.86,2.63-2.49,5.75-4.45,9.35-5.89,3.6-1.43,7.48-2.15,11.63-2.15ZM193.46,467.79c2.72,0,5.19-.56,7.41-1.7,2.22-1.13,4.1-2.73,5.64-4.81,1.55-2.08,2.75-4.59,3.6-7.55.85-2.95,1.28-6.23,1.28-9.83s-.43-6.85-1.28-9.76c-.85-2.91-2.05-5.38-3.6-7.41-1.55-2.03-3.43-3.6-5.64-4.71-2.22-1.11-4.68-1.66-7.41-1.66s-5.16.54-7.3,1.63c-2.15,1.09-3.96,2.64-5.44,4.67-1.48,2.03-2.62,4.5-3.43,7.41-.81,2.91-1.21,6.19-1.21,9.83s.4,7.02,1.21,9.97c.81,2.95,1.96,5.46,3.46,7.51,1.5,2.05,3.32,3.64,5.47,4.74,2.15,1.11,4.56,1.66,7.24,1.66Z"/>
        <path class="cls-1" d="M278.36,448.41c0,3.92-.43,7.28-1.28,10.07-.85,2.79-2.18,5.09-3.98,6.89-1.8,1.8-4.12,3.11-6.96,3.95-2.84.83-6.24,1.25-10.21,1.25-7.43,0-12.87-1.56-16.3-4.67-3.44-3.12-5.16-8.09-5.16-14.92v-18.97c0-1.8-.02-3.31-.07-4.53-.05-1.22-.12-2.25-.21-3.08-.09-.83-.22-1.51-.38-2.04-.16-.53-.36-.98-.59-1.35-.42-.65-1.02-1.08-1.8-1.32-.79-.23-1.99-.35-3.6-.35v-2.77h24.86v2.77c-1.94,0-3.37.1-4.29.31-.92.21-1.64.61-2.15,1.21-.32.37-.59.82-.8,1.35-.21.53-.37,1.22-.48,2.08-.12.85-.2,1.9-.24,3.15-.05,1.25-.07,2.77-.07,4.57v18.14c0,5.26,1.12,9.15,3.36,11.67,2.24,2.52,5.69,3.77,10.35,3.77,9.51,0,14.26-5.29,14.26-15.86v-15.99c0-1.94-.03-3.6-.1-4.98-.07-1.39-.19-2.56-.35-3.53-.16-.97-.37-1.78-.62-2.42-.25-.65-.57-1.18-.94-1.59-.65-.65-1.48-1.12-2.49-1.42-1.02-.3-2.42-.45-4.22-.45v-2.77h22.43v2.77c-1.71,0-3.02.13-3.95.38-.92.25-1.64.7-2.15,1.35-.37.42-.67.96-.9,1.63-.23.67-.42,1.5-.55,2.49-.14.99-.24,2.18-.31,3.57-.07,1.38-.1,3.05-.1,4.98v14.68Z"/>
        <path class="cls-1" d="M308.62,440.38c2.95,0,5.33-.09,7.13-.28,1.8-.18,3.19-.56,4.19-1.14.99-.58,1.7-1.42,2.11-2.53.42-1.11.74-2.61.97-4.5h2.56v20.29h-2.56c-.28-1.85-.65-3.32-1.11-4.43-.46-1.11-1.2-1.95-2.22-2.53-1.02-.58-2.39-.95-4.12-1.11-1.73-.16-4.05-.24-6.96-.24v14.26c0,1.48.2,2.72.59,3.74.39,1.02,1.05,1.83,1.97,2.46.92.62,2.15,1.06,3.67,1.31,1.52.25,3.39.38,5.61.38,2.63,0,4.86-.18,6.68-.55,1.82-.37,3.33-1.01,4.53-1.94,1.2-.92,2.17-2.16,2.91-3.7.74-1.55,1.36-3.5,1.87-5.85h2.77l-1.11,15.86h-46.94v-2.77c1.52-.05,2.77-.18,3.74-.42.97-.23,1.71-.62,2.22-1.18s.85-1.34,1.04-2.35c.18-1.01.28-2.33.28-3.95v-31.99c0-1.62-.08-2.92-.24-3.91-.16-.99-.47-1.78-.93-2.35-.46-.58-1.12-.97-1.97-1.18-.85-.21-1.97-.36-3.36-.45v-2.77h43.76l.48,13.57h-2.98c-.28-1.94-.72-3.54-1.32-4.81-.6-1.27-1.43-2.28-2.49-3.05-1.06-.76-2.43-1.29-4.12-1.59-1.69-.3-3.75-.45-6.2-.45h-7.82c-1.2,0-1.94.15-2.22.45-.28.3-.42,1-.42,2.11v17.59Z"/>
        <path class="cls-1" d="M486.21,429.92c0,3.83-1.11,7.04-3.32,9.62-2.22,2.59-5.75,4.32-10.59,5.19l16.06,18.42c1.11,1.29,2.42,2.27,3.95,2.94,1.52.67,3.07,1,4.64,1v2.77h-16.41l-17.17-21.05c-1.16-1.39-2.16-2.32-3.01-2.8-.85-.48-1.65-.73-2.39-.73v13.57c0,1.71.11,3.1.35,4.19s.69,1.93,1.39,2.53c.69.6,1.7,1,3.01,1.21s3.08.31,5.3.31v2.77h-27.49v-2.77c1.52,0,2.76-.1,3.7-.31.94-.21,1.68-.6,2.22-1.18.53-.58.89-1.39,1.07-2.42.18-1.04.28-2.36.28-3.98v-31.99c0-1.62-.07-2.92-.21-3.91-.14-.99-.44-1.78-.9-2.35-.46-.58-1.12-.97-1.97-1.18-.85-.21-2-.36-3.43-.45v-2.77h23.96c6.69,0,11.86,1.18,15.51,3.53,3.65,2.35,5.47,5.63,5.47,9.83ZM457.97,441.14h4.5c4.34,0,7.58-.84,9.73-2.53,2.15-1.68,3.22-4.47,3.22-8.34,0-2.95-.9-5.33-2.7-7.13s-4.29-2.7-7.48-2.7h-6.02c-.83,0-1.25.39-1.25,1.18v19.52Z"/>
        <path class="cls-1" d="M502.66,469.87v-2.77c1.52-.05,2.76-.17,3.7-.38.95-.21,1.68-.6,2.22-1.18.53-.58.89-1.36,1.07-2.35.18-.99.28-2.32.28-3.98v-31.99c0-1.62-.07-2.92-.21-3.91-.14-.99-.44-1.78-.9-2.35-.46-.58-1.1-.97-1.9-1.18-.81-.21-1.86-.36-3.15-.45v-2.77h26.31c4.43,0,8.52.69,12.25,2.08,3.74,1.39,6.97,3.3,9.69,5.75,2.72,2.45,4.85,5.35,6.37,8.72,1.52,3.37,2.28,7.04,2.28,11.01s-.72,7.26-2.15,10.42c-1.43,3.16-3.43,5.87-5.99,8.14-2.56,2.26-5.63,4.03-9.21,5.3-3.58,1.27-7.51,1.9-11.8,1.9h-28.87ZM521.29,420.78c-.79,0-1.18.39-1.18,1.18v35.8c0,2.68.83,4.66,2.49,5.95,1.66,1.29,4.22,1.94,7.69,1.94,6.05,0,10.7-1.82,13.95-5.47,3.25-3.65,4.88-8.95,4.88-15.92,0-3.69-.44-6.99-1.32-9.9-.88-2.91-2.15-5.37-3.81-7.37-1.66-2.01-3.68-3.54-6.06-4.6-2.38-1.06-5.04-1.59-8-1.59h-8.65Z"/>
        <path class="cls-1" d="M672.36,469.87h-47.7v-2.77c1.52-.05,2.77-.18,3.74-.42.97-.23,1.71-.62,2.22-1.18s.85-1.34,1.04-2.35c.18-1.01.28-2.33.28-3.95v-31.99c0-1.62-.08-2.92-.24-3.91-.16-.99-.47-1.78-.93-2.35-.46-.58-1.12-.97-1.97-1.18-.85-.21-1.97-.36-3.36-.45v-2.77h23.89v2.77c-1.57.05-2.83.18-3.77.42-.95.23-1.67.65-2.18,1.25-.51.6-.84,1.43-1,2.49-.16,1.06-.24,2.47-.24,4.22v29.01c0,1.94.2,3.52.59,4.74.39,1.22,1.07,2.17,2.04,2.84.97.67,2.26,1.13,3.88,1.38,1.62.25,3.62.38,6.02.38,2.68,0,4.92-.16,6.72-.48,1.8-.32,3.31-.93,4.54-1.83,1.22-.9,2.2-2.11,2.94-3.64.74-1.52,1.36-3.51,1.87-5.95h2.77l-1.11,15.72Z"/>
        <path class="cls-1" d="M696.25,440.38c2.95,0,5.33-.09,7.13-.28,1.8-.18,3.2-.56,4.19-1.14.99-.58,1.7-1.42,2.11-2.53.42-1.11.74-2.61.97-4.5h2.56v20.29h-2.56c-.28-1.85-.65-3.32-1.11-4.43-.46-1.11-1.2-1.95-2.22-2.53-1.02-.58-2.39-.95-4.12-1.11-1.73-.16-4.05-.24-6.96-.24v14.26c0,1.48.2,2.72.59,3.74.39,1.02,1.05,1.83,1.97,2.46.92.62,2.15,1.06,3.67,1.31,1.52.25,3.39.38,5.61.38,2.63,0,4.86-.18,6.68-.55,1.82-.37,3.33-1.01,4.53-1.94,1.2-.92,2.17-2.16,2.91-3.7.74-1.55,1.36-3.5,1.87-5.85h2.77l-1.11,15.86h-46.94v-2.77c1.52-.05,2.77-.18,3.74-.42.97-.23,1.71-.62,2.22-1.18.51-.55.85-1.34,1.04-2.35.18-1.01.28-2.33.28-3.95v-31.99c0-1.62-.08-2.92-.24-3.91-.16-.99-.47-1.78-.94-2.35-.46-.58-1.12-.97-1.97-1.18-.85-.21-1.97-.36-3.36-.45v-2.77h43.76l.48,13.57h-2.98c-.28-1.94-.72-3.54-1.32-4.81-.6-1.27-1.43-2.28-2.49-3.05-1.06-.76-2.43-1.29-4.12-1.59-1.69-.3-3.75-.45-6.2-.45h-7.82c-1.2,0-1.94.15-2.22.45-.28.3-.42,1-.42,2.11v17.59Z"/>
        <path class="cls-1" d="M734.88,452.22h2.7c.65,4.39,2.4,7.84,5.26,10.35,2.86,2.52,6.39,3.77,10.59,3.77,1.71,0,3.28-.21,4.71-.62,1.43-.42,2.65-1,3.67-1.77s1.8-1.66,2.35-2.7.83-2.2.83-3.5c0-1.11-.17-2.07-.52-2.87-.35-.81-1-1.59-1.97-2.35-.97-.76-2.3-1.53-3.98-2.32-1.69-.78-3.87-1.68-6.54-2.7-5.4-2.08-9.39-4.49-11.98-7.24-2.59-2.74-3.88-5.99-3.88-9.73,0-2.17.42-4.15,1.25-5.95s2-3.35,3.5-4.64c1.5-1.29,3.3-2.3,5.4-3.01,2.1-.72,4.42-1.07,6.96-1.07,2.35,0,4.57.37,6.65,1.11,2.08.74,4.13,1.85,6.16,3.32l1.25-3.46h1.66l.76,14.96h-2.7c-1.11-3.78-2.84-6.68-5.19-8.69s-5.08-3.01-8.17-3.01c-2.86,0-5.18.7-6.96,2.11-1.78,1.41-2.67,3.22-2.67,5.44,0,.97.16,1.83.48,2.6.32.76.92,1.49,1.8,2.18.88.69,2.08,1.4,3.6,2.11,1.52.72,3.48,1.51,5.89,2.39,3.23,1.25,5.99,2.5,8.27,3.77,2.28,1.27,4.15,2.63,5.61,4.08,1.45,1.45,2.53,2.99,3.22,4.6.69,1.62,1.04,3.39,1.04,5.33,0,2.35-.51,4.5-1.52,6.44-1.02,1.94-2.44,3.6-4.26,4.99-1.82,1.38-3.99,2.47-6.51,3.25-2.52.78-5.3,1.18-8.34,1.18-2.77,0-5.26-.38-7.48-1.14-2.22-.76-4.5-2-6.85-3.7l-1.39,4.15h-1.66l-1.04-17.66Z"/>
        <path class="cls-1" d="M96.92,466.41c-.99-.28-1.87-.77-2.63-1.49-.76-.71-1.48-1.74-2.15-3.08-.67-1.34-1.49-3.19-2.46-5.54l-16.55-40.43h-5.12l-18.21,45.63c-.42.97-.85,1.79-1.32,2.46-.46.67-1,1.21-1.63,1.63-.62.42-1.34.74-2.15.97-.81.23-1.77.42-2.87.55v2.77h18.97v-2.77c-2.08,0-3.63-.18-4.67-.55-1.04-.37-1.56-1.25-1.56-2.63,0-1.89,13.08-35.31,13.08-35.31h.28l11.08,29.29c.55,1.48.99,2.72,1.32,3.74.32,1.02.48,1.85.48,2.49,0,1.11-.48,1.85-1.45,2.22-.97.37-2.56.6-4.78.69v2.84h26.17v-2.84c-1.57-.14-2.85-.35-3.84-.62Z"/>
        <path class="cls-1" d="M430.54,466.41c-.99-.28-1.87-.77-2.63-1.49-.76-.71-1.48-1.74-2.15-3.08-.67-1.34-1.49-3.19-2.46-5.54l-16.55-40.43h-5.12l-18.21,45.63c-.42.97-.85,1.79-1.32,2.46-.46.67-1,1.21-1.63,1.63-.62.42-1.34.74-2.15.97-.81.23-1.77.42-2.87.55v2.77h18.97v-2.77c-2.08,0-3.63-.18-4.67-.55-1.04-.37-1.56-1.25-1.56-2.63,0-1.89,13.08-35.31,13.08-35.31h.28l11.08,29.29c.55,1.48.99,2.72,1.32,3.74.32,1.02.48,1.85.48,2.49,0,1.11-.48,1.85-1.45,2.22-.97.37-2.56.6-4.78.69v2.84h26.17v-2.84c-1.57-.14-2.85-.35-3.84-.62Z"/>
        <path class="cls-1" d="M615.64,466.41c-.99-.28-1.87-.77-2.63-1.49-.76-.71-1.48-1.74-2.15-3.08-.67-1.34-1.49-3.19-2.46-5.54l-16.55-40.43h-5.12l-18.21,45.63c-.42.97-.85,1.79-1.32,2.46-.46.67-1,1.21-1.63,1.63-.62.42-1.34.74-2.15.97-.81.23-1.77.42-2.87.55v2.77h18.97v-2.77c-2.08,0-3.63-.18-4.67-.55-1.04-.37-1.56-1.25-1.56-2.63,0-1.89,13.08-35.31,13.08-35.31h.28l11.08,29.29c.55,1.48.99,2.72,1.32,3.74.32,1.02.48,1.85.48,2.49,0,1.11-.48,1.85-1.45,2.22-.97.37-2.56.6-4.78.69v2.84h26.17v-2.84c-1.57-.14-2.85-.35-3.84-.62Z"/>
      </g>
      <g>
        <path class="cls-3" d="M507.6,59.66c-.57,6.74-.97,12.82-.97,12.82-7.06,1.26-28.1,4.51-57.41,4.51s-49.8-3.16-57.12-4.46c0,0-2.69-26.4-2.81-27.05-.12-.65-.44-1.07-.88-1.39-3.17-2.26-16-11.42-16.41-11.72-.47-.34-.77-.8-.9-1.35-1.21-4.84-7.13-28.59-7.24-28.97-.12-.42-.52-.8-1.14-.99-.78-.23-2.01-.6-3.53-1.06-39.06,5.83-75.1,23.91-103.54,52.35-35.08,35.08-54.4,81.73-54.4,131.34,0,20.13,3.18,39.77,9.3,58.34h352.88c6.12-18.58,9.3-38.21,9.3-58.34,0-49.61-19.32-96.26-54.4-131.34-2.92-2.92-6.55,2.77-10.7,7.31ZM452.58,83.69c8.42-.07,16.08-.39,22.89-.84v26.23c-6.82-.45-14.48-.77-22.89-.84v-24.55ZM422.97,82.85c6.81.45,14.47.77,22.89.84v24.55c-8.41.07-16.07.39-22.89.84v-26.23ZM393.55,79.6c4.83.79,12.56,1.88,22.7,2.74v27.24c-6.38.54-11.82,1.17-16.21,1.76l-6.49-31.74ZM493.59,136.79c-.06.77-.42,1.32-.8,1.62-3.61,2.81-17.22,14.35-17.65,14.91-.48.62-.92,1.07-1.14,1.86-.13.47-.49,2.33-.49,2.33h-55.14s.03-20.29,0-20.88c-.05-.8.31-.9-.89-2.18-1.21-1.28-7.96-12.95-7.96-12.95,10.1-1.09,23.66-2.07,39.72-2.07,21.42,0,38.39,1.74,48.64,3.16,0,0-4.22,13.43-4.27,14.19ZM499.8,111.53c-4.61-.65-10.53-1.36-17.6-1.95v-27.24c10.51-.89,18.42-2.03,23.21-2.83l-5.6,32.01Z"/>
        <path class="cls-2" d="M347.21,300.11c37.53,11.52,82.06,11.89,113.04-.02,2.07-.79,2.98-.23,1.43.85-48.08,33.28-120.24,11.3-169.76-9.22-19.04-8.08-46.1-18.1-70.83-24.25,8.79,17.36,20.38,33.4,34.53,47.56,2.54,2.54,5.16,4.99,7.82,7.37,3.32,2.88,6.63,5.63,9.86,8.22,32.4,25.17,71.98,38.81,113.67,38.81s78.13-12.59,109.79-35.88c5.91-4.62,12.16-9.79,18.37-15.42,1.07-1.02,2.13-2.05,3.18-3.1,15.42-15.42,27.79-33.07,36.81-52.22-99.55-2.99-180.04,25.32-207.91,37.3ZM438.93,346.15c-11.58,13.68-34.9,9.99-50.4,4.97-19.69-6.61-51.51-24.98-71.26-11.14-.93.66-1.18-.31-.3-1.39,11.47-14.14,35.08-10.42,50.73-5.36,19.45,6.52,50.71,24.49,70.5,11.64,1.2-.78,1.74.1.73,1.29Z"/>
        <path class="cls-1" d="M552.12,242.03l-47.69-82.61s-.69-1.91-3.98-1.91h-98.22c-1.82,0-.57,1.75-.57,1.75l47.79,82.77h-5.7s-46.21-80.42-47.25-81.84c-1.04-1.42-1.74-2.35-3.01-.15-11,19.05-10.74,18.6-47.34,81.99h-52.22v-37.17c17.77,7.35,57.86,22.95,57.86,14.21,0-11.23-22.45-14.18-40.18-43.72-2.14-3.56-3.98-7.21-5.59-10.87,15.56,5.87,34.34,11.84,34.34,6.4,0-9.29-18.58-11.73-33.24-36.17-3.47-5.78-6-11.83-7.97-17.71,13.05,5.07,30.85,11.11,30.85,6.34,0-7.53-15.06-9.51-26.95-29.32-11.89-19.81-10.3-43.59-17.44-43.59s-5.55,23.78-17.44,43.59c-11.89,19.81-26.95,21.8-26.95,29.32,0,4.77,17.79-1.27,30.85-6.34-1.97,5.88-4.5,11.93-7.97,17.71-14.67,24.44-33.24,26.89-33.24,36.17,0,5.44,18.77-.52,34.34-6.4-1.61,3.66-3.45,7.31-5.59,10.87-17.73,29.54-40.18,32.5-40.18,43.72,0,8.74,40.08-6.86,57.86-14.21v37.17h-66.76c1.67,5.05,3.56,10.02,5.65,14.9,27.92,4.85,59.63,15.4,80.16,24.54,11.9,4.8,24.59,9.83,37.72,14.34,7.01-3.39,28.75-13.3,61.92-22.79,35.84-10.26,96.6-21.78,163.17-19.43,1.55-3.81,2.97-7.66,4.26-11.57h-11.29Z"/>
        <path class="cls-3" d="M393.45,207.18c-1.49,2.57-20.12,34.85-20.12,34.85h43.25s-19.39-33.75-20.13-34.87-1.51-2.55-3,.02Z"/>
      </g>
      <g>
        <path class="cls-3" d="M248.3,542.74c1.8,0,3.35-.3,4.65-.91s2.66-1.57,4.07-2.9l3.37,3.45c-3.28,3.63-7.26,5.45-11.94,5.45s-8.56-1.51-11.65-4.52c-3.09-3.01-4.63-6.82-4.63-11.42s1.57-8.45,4.72-11.52c3.14-3.07,7.11-4.61,11.92-4.61s8.8,1.77,12.02,5.32l-3.32,3.63c-1.48-1.41-2.87-2.41-4.19-2.97-1.31-.56-2.86-.84-4.63-.84-3.13,0-5.76,1.01-7.88,3.03-2.13,2.02-3.19,4.61-3.19,7.75s1.05,5.77,3.17,7.88c2.11,2.11,4.61,3.17,7.51,3.17Z"/>
        <path class="cls-3" d="M285.08,540.43l-3.1,7.04h-5.58l13.64-30.96h5.58l13.64,30.96h-5.58l-3.1-7.04h-15.5ZM298.46,535.61l-5.62-12.76-5.63,12.76h11.25Z"/>
        <path class="cls-3" d="M333.36,547.47h-5.22v-30.96h8.15l9.34,19.44,9.34-19.44h8.11v30.96h-5.23v-24.18l-10.81,21.48h-2.92l-10.76-21.48v24.18Z"/>
        <path class="cls-3" d="M408.69,519.22c2.16,1.8,3.23,4.58,3.23,8.33s-1.1,6.49-3.3,8.24c-2.2,1.74-5.57,2.61-10.12,2.61h-5.49v9.08h-5.22v-30.96h10.63c4.7,0,8.12.9,10.27,2.7ZM404.99,532c1.05-1.11,1.57-2.73,1.57-4.87s-.66-3.65-1.99-4.54c-1.33-.89-3.41-1.33-6.24-1.33h-5.32v12.4h6.07c2.89,0,4.87-.55,5.91-1.66Z"/>
        <path class="cls-3" d="M432.66,516.52h5.22v30.96h-5.22v-30.96Z"/>
        <path class="cls-3" d="M485.82,516.52h5.22v30.96h-5.67l-17.54-22.59v22.59h-5.22v-30.96h5.22l17.98,23.12v-23.12Z"/>
        <path class="cls-3" d="M536.53,532.42h5.23v10.58c-2.92,3.22-7.1,4.83-12.53,4.83-4.58,0-8.41-1.51-11.49-4.52-3.09-3.01-4.63-6.82-4.63-11.42s1.57-8.45,4.72-11.52c3.14-3.07,6.95-4.61,11.41-4.61s8.16,1.3,11.12,3.9l-2.79,3.99c-1.21-1.03-2.43-1.75-3.65-2.15-1.22-.4-2.65-.6-4.27-.6-3.13,0-5.76,1.01-7.88,3.03-2.13,2.02-3.19,4.68-3.19,7.97s1.03,5.93,3.1,7.93,4.57,2.99,7.51,2.99,5.4-.64,7.37-1.91v-8.5Z"/>
      </g>
    </g>
  </g>
</svg>